<svg data-v-423bf9ae="" xmlns="http://www.w3.org/2000/svg" viewBox="0 0 481 90" class="iconLeft"><!----><!----><!----><g data-v-423bf9ae="" id="6289edba-d69c-46ee-96bd-ad9bbe1aaf29" fill="#1F4529" transform="matrix(4.622496310940746,0,0,4.622496310940746,154.10355132815835,0.023112146887001472)"><path d="M8.62 13.15L3.97 8.20L8.31 3.82L6.36 3.82L2.65 7.67L2.65 3.82L1.17 3.82L1.17 13.15L2.65 13.15L2.65 8.76L6.64 13.15ZM10.11 5.26C10.62 5.26 11.02 4.86 11.02 4.36C11.02 3.86 10.62 3.46 10.11 3.46C9.61 3.46 9.20 3.86 9.20 4.36C9.20 4.86 9.61 5.26 10.11 5.26ZM9.44 13.15L10.82 13.15L10.82 6.53L9.44 6.53ZM15.90 6.53L14.48 6.53L14.48 4.64L13.08 4.64L13.08 6.53L12.21 6.53L12.21 7.67L13.08 7.67L13.08 13.15L14.50 13.15L14.48 7.67L15.90 7.67ZM19.82 13.34C20.74 13.34 21.48 13.07 22.09 12.60L21.28 11.58C20.91 11.93 20.40 12.13 19.85 12.13C18.55 12.13 17.78 11.14 17.78 9.84C17.78 8.55 18.55 7.57 19.85 7.57C20.40 7.57 20.91 7.77 21.28 8.12L22.09 7.10C21.48 6.64 20.74 6.36 19.82 6.36C17.76 6.36 16.33 7.89 16.33 9.84C16.33 11.81 17.76 13.34 19.82 13.34ZM26.67 6.36C25.74 6.36 25.03 6.75 24.62 7.35L24.62 3.24L23.20 3.24L23.20 13.15L24.62 13.15L24.62 9.42C24.62 8.02 25.48 7.57 26.28 7.57C27.30 7.57 27.74 8.30 27.74 9.38L27.74 13.15L29.15 13.15L29.15 9.06C29.15 7 27.83 6.36 26.67 6.36ZM37.13 9.70C37.13 7.73 35.80 6.36 33.88 6.36C31.89 6.36 30.46 7.89 30.46 9.84C30.46 11.80 31.88 13.31 34.05 13.31C35.19 13.31 36.15 12.92 36.75 12.25L35.77 11.46C35.35 11.94 34.78 12.19 34.04 12.19C32.80 12.19 32.05 11.33 31.95 10.15L37.13 10.15ZM33.88 7.50C34.91 7.50 35.58 8.12 35.73 9.17L32.01 9.17C32.21 8.17 32.90 7.50 33.88 7.50ZM41.99 6.36C41.05 6.36 40.35 6.75 39.94 7.32L39.77 6.53L38.53 6.53L38.53 13.15L39.94 13.15L39.94 9.11C40.06 7.95 40.85 7.57 41.59 7.57C42.61 7.57 43.05 8.30 43.05 9.38L43.05 13.15L44.46 13.15L44.46 9.06C44.46 7 43.14 6.36 41.99 6.36ZM51.63 11.87L51.63 3.82L50.14 3.82L50.14 13.15L55.24 13.15L55.24 11.87ZM59.30 13.34C61.38 13.34 62.84 11.81 62.84 9.84C62.84 7.89 61.38 6.36 59.30 6.36C57.18 6.36 55.74 7.89 55.74 9.84C55.74 11.81 57.18 13.34 59.30 13.34ZM59.30 12.13C58.07 12.13 57.21 11.14 57.21 9.84C57.21 8.56 58.07 7.57 59.30 7.57C60.51 7.57 61.37 8.56 61.37 9.84C61.37 11.14 60.51 12.13 59.30 12.13ZM69.45 6.53L69.26 7.47C68.75 6.80 67.97 6.36 66.95 6.36C65.23 6.36 63.86 7.67 63.86 9.81C63.86 11.96 65.23 13.27 66.95 13.27C67.91 13.27 68.67 12.89 69.18 12.26L69.18 12.43C69.18 14.13 68.67 15.02 67.27 15.02C66.91 15.02 66.51 14.95 66.16 14.79L65.84 15.98C66.28 16.13 66.82 16.22 67.35 16.22C69.50 16.22 70.60 14.95 70.60 12.54L70.60 6.53ZM67.29 12.07C66.09 12.07 65.30 11.11 65.30 9.81C65.30 8.53 66.09 7.54 67.29 7.54C68.53 7.54 69.33 8.53 69.33 9.81C69.33 11.11 68.53 12.07 67.29 12.07Z"></path></g><!----><g data-v-423bf9ae="" id="8eec5a33-5ec7-405b-b89f-1983c4806376" transform="matrix(4.500375969824749,0,0,4.500375969824749,-1.5059504641817512,-27.00460926310393)" stroke="none" fill="#1F4529"><path style="line-height:normal;text-indent:0;text-align:start;text-decoration-line:none;text-decoration-style:solid;text-decoration-color:#000;text-transform:none;block-progression:tb;white-space:normal;isolation:auto;mix-blend-mode:normal;solid-color:#000;solid-opacity:1" d="M13.967 13.466c-.71.83-.577 2.51.3 3.266.984.984 2.577 1.038 3.54.076.962-.962.787-2.734-.077-3.537-.92-.855-2.488-1.296-3.763.195zm1.97.029c.384.01.775.17 1.086.48.622.622.636 1.564.077 2.123-.56.56-1.503.546-2.125-.076-.621-.62-.634-1.561-.079-2.12h.002a1.4 1.4 0 011.04-.405z" color="#000" font-weight="400" font-family="sans-serif" overflow="visible"></path><path style="line-height:normal;text-indent:0;text-align:start;text-decoration-line:none;text-decoration-style:solid;text-decoration-color:#000;text-transform:none;block-progression:tb;white-space:normal;isolation:auto;mix-blend-mode:normal;solid-color:#000;solid-opacity:1" d="M4.992 7.5a.5.5 0 00-.492.507v4.484a.5.5 0 101 0V8.007a.5.5 0 00-.508-.508z" color="#000" font-weight="400" font-family="sans-serif" overflow="visible" stroke-linecap="round"></path><path style="line-height:normal;text-indent:0;text-align:start;text-decoration-line:none;text-decoration-style:solid;text-decoration-color:#000;text-transform:none;block-progression:tb;white-space:normal;isolation:auto;mix-blend-mode:normal;solid-color:#000;solid-opacity:1" d="M.5 12.5v1.571c0 .584.333 1.09.793 1.418.46.329 1.057.51 1.707.51.65 0 1.245-.181 1.705-.51.46-.328.795-.834.795-1.418V12.5h-5zm1 1h3v.571c0 .208-.112.416-.375.604s-.667.324-1.125.324c-.458 0-.862-.136-1.125-.324s-.375-.396-.375-.604V13.5zM1.5 18.5v6.317c0 .375.213.695.482.89.27.193.605.292.963.292h.11c.358 0 .692-.099.96-.293.27-.194.485-.514.485-.889V18.5h-3zm1 1h1v5.317s.002.026-.07.078a.668.668 0 01-.375.104h-.11a.68.68 0 01-.377-.103c-.072-.053-.068-.075-.068-.079V19.5z" color="#000" font-weight="400" font-family="sans-serif" overflow="visible" stroke-linecap="round"></path><path style="line-height:normal;text-indent:0;text-align:start;text-decoration-line:none;text-decoration-style:solid;text-decoration-color:#000;text-transform:none;block-progression:tb;white-space:normal;isolation:auto;mix-blend-mode:normal;solid-color:#000;solid-opacity:1" d="M2.5 15v4.5h1V15h-1z" color="#000" font-weight="400" font-family="sans-serif" overflow="visible"></path><path style="line-height:normal;text-indent:0;text-align:start;text-decoration-line:none;text-decoration-style:solid;text-decoration-color:#000;text-transform:none;block-progression:tb;white-space:normal;isolation:auto;mix-blend-mode:normal;solid-color:#000;solid-opacity:1" d="M2.992 7.5a.5.5 0 00-.492.507v4.484a.5.5 0 101 0V8.007a.5.5 0 00-.508-.508zM.992 7.5a.5.5 0 00-.492.507v4.484a.5.5 0 101 0V8.007a.5.5 0 00-.508-.508z" color="#000" font-weight="400" font-family="sans-serif" overflow="visible" stroke-linecap="round"></path><path style="line-height:normal;text-indent:0;text-align:start;text-decoration-line:none;text-decoration-style:solid;text-decoration-color:#000;text-transform:none;block-progression:tb;white-space:normal;isolation:auto;mix-blend-mode:normal;solid-color:#000;solid-opacity:1" d="M30.977 7.5a.5.5 0 00-.266.085c-2.552 1.735-3.175 4.255-3.211 6.238a.5.5 0 000 .01v5.104a.5.5 0 00.5.5h.5l.008 6.062a.5.5 0 00.5.5H31a.5.5 0 00.5-.5l-.002-6.513v-.01a.5.5 0 00-.002-.088.5.5 0 000-.012l-.004-10.881a.5.5 0 00-.516-.5zm-.485 1.616l.004 9.32h-1.418a.5.5 0 00-.16 0H28.5v-4.595c.028-1.547.467-3.289 1.992-4.725zm-.992 10.32h.998L30.5 25h-.994l-.006-5.562z" color="#000" font-weight="400" font-family="sans-serif" overflow="visible" stroke-linecap="round" stroke-linejoin="round"></path><path style="line-height:normal;text-indent:0;text-align:start;text-decoration-line:none;text-decoration-style:solid;text-decoration-color:#000;text-transform:none;block-progression:tb;white-space:normal;isolation:auto;mix-blend-mode:normal;solid-color:#000;solid-opacity:1" d="M15.264 9.5c-2.353 0-4.252 1.992-4.25 4.413 0 .358.08.78.13 1.197.052.418.041.844.026.89-.352 1.048-.138 2.024.453 2.679.59.654 1.487 1 2.465 1.08h.01c.392.024.803.348 1.306.777.411.35.931.702 1.563.844l.035.117h.375c.666 0 1.155-.232 1.496-.523.341-.291.57-.586.994-.889.38-.271 1-.624 1.547-1.062.546-.44 1.086-1.006 1.086-1.787 0-.615-.433-.982-.709-1.24-.276-.26-.393-.412-.393-.499v-.014l-.002-.014c-.002-.045.13-.359.338-.73.208-.372.487-.856.338-1.446-.133-.527-.512-.865-.855-1.115-.343-.25-.68-.444-.883-.635-.126-.118-.206-.42-.434-.83-.228-.409-.758-.826-1.543-.826-.34 0-.57.138-.724.205-.155.068-.197.061-.186.064-.593-.16-1.248-.66-2.183-.66zm-.002 1c.524 0 1.09.4 1.923.626.363.098.662-.033.85-.115.189-.083.305-.121.324-.121.528 0 .543.088.668.312s.207.682.623 1.072c.331.311.702.514.979.715.277.202.429.37.474.551.03.12-.051.373-.242.713-.187.336-.479.707-.457 1.256.007.603.431.964.703 1.219.275.257.393.41.393.51 0 .285-.257.64-.713 1.007-.456.367-1.046.702-1.502 1.028-.531.379-.83.742-1.062.941-.233.199-.365.285-.846.285-.428 0-.83-.301-1.324-.723-.494-.42-1.065-.964-1.897-1.013h.012c-.787-.064-1.44-.351-1.803-.754s-.51-.908-.248-1.69c.15-.45.077-.882.022-1.33-.056-.448-.125-.903-.125-1.074-.001-1.903 1.46-3.415 3.248-3.414z" color="#000" font-weight="400" font-family="sans-serif" overflow="visible"></path><path style="line-height:normal;text-indent:0;text-align:start;text-decoration-line:none;text-decoration-style:solid;text-decoration-color:#000;text-transform:none;block-progression:tb;white-space:normal;isolation:auto;mix-blend-mode:normal;solid-color:#000;solid-opacity:1" d="M15.271 6.08a9.462 9.462 0 00-3.328 1.083.5.5 0 10.479.877 8.496 8.496 0 0111.04 2.584 8.495 8.495 0 01-1.349 11.258 8.491 8.491 0 01-11.336-.098 8.495 8.495 0 01-1.156-11.28.5.5 0 10-.809-.587 9.509 9.509 0 001.292 12.607 9.507 9.507 0 0012.671.108 9.507 9.507 0 001.506-12.582 9.507 9.507 0 00-9.01-3.97z" color="#000" font-weight="400" font-family="sans-serif" overflow="visible" stroke-linecap="round" stroke-linejoin="round"></path><path d="M10.01 8.777a.5.5 0 00.5.5.5.5 0 00.5-.5.5.5 0 00-.5-.5.5.5 0 00-.5.5z" stroke-width=".265" stroke-linecap="round" stroke-linejoin="round"></path></g><!----></svg>